<?xml version="1.0" encoding="UTF-8"?>
<svg width="210mm" height="297mm" version="1.1" viewBox="0 0 210 297" xmlns="http://www.w3.org/2000/svg" xmlns:cc="http://creativecommons.org/ns#" xmlns:dc="http://purl.org/dc/elements/1.1/" xmlns:rdf="http://www.w3.org/1999/02/22-rdf-syntax-ns#">
<metadata>
<rdf:RDF>
<cc:Work rdf:about="">
<dc:format>image/svg+xml</dc:format>
<dc:type rdf:resource="http://purl.org/dc/dcmitype/StillImage"/>
<dc:title/>
</cc:Work>
</rdf:RDF>
</metadata>
<path d="m55.855 30.338c0.81142 0 1.4647 0.65324 1.4647 1.4647v20.6c0 0.81142-0.65324 1.4647-1.4647 1.4647-0.81142 0-1.4647-0.65324-1.4647-1.4647v-20.6c0-0.81142 0.65324-1.4647 1.4647-1.4647zm-7.9375 0c0.81142 0 1.4647 0.65324 1.4647 1.4647v20.6c0 0.81142-0.65324 1.4647-1.4647 1.4647s-1.4647-0.65324-1.4647-1.4647v-20.6c0-0.81142 0.65324-1.4647 1.4647-1.4647zm-7.9375 0c0.81142 0 1.4647 0.65324 1.4647 1.4647v20.6c0 0.81142-0.65324 1.4647-1.4647 1.4647-0.81142 0-1.4647-0.65324-1.4647-1.4647v-20.6c0-0.81142 0.65324-1.4647 1.4647-1.4647zm7.8146-18.407a8.5045 5.9531 0 0 0-8.5044 5.9531 8.5045 5.9531 0 0 0 0.0016 0.0186h1.819a6.7361 4.7153 0 0 1 6.7298-4.6302 6.7361 4.7153 0 0 1 6.7319 4.6302h1.7255a8.5045 5.9531 0 0 0 1e-3 -0.0186 8.5045 5.9531 0 0 0-8.5044-5.9531zm-15.006 5.5185c-2.9316 0-5.2917 2.3601-5.2917 5.2917s2.3601 5.2917 5.2917 5.2917h30.522c2.9316 0 5.2916-2.3601 5.2916-5.2917s-2.3601-5.2917-5.2916-5.2917zm0.31316 1.4697h29.829c2.1056 0 3.8008 1.6952 3.8008 3.8008 0 2.1056-1.6952 3.8008-3.8008 3.8008h-29.829c-2.1056 0-3.8003-1.6952-3.8003-3.8008 0-2.1056 1.6947-3.8008 3.8003-3.8008zm-1.7301 8.5845v28.348c0 2.9316 2.3601 5.2917 5.2917 5.2917h22.867c2.9316 0 5.2917-2.3601 5.2917-5.2917v-28.348h-2.8205c0.02461 0.1851 0.04238 0.37225 0.04238 0.56431v25.916c0 2.4513-1.9733 4.4251-4.4245 4.4251h-19.121c-2.4513 0-4.4251-1.9738-4.4251-4.4251v-25.916c0-0.19205 0.01777-0.3792 0.04237-0.56431z"/>
</svg>
