<?xml version="1.0" encoding="UTF-8"?>
<svg width="210mm" height="297mm" version="1.1" viewBox="0 0 210 297" xmlns="http://www.w3.org/2000/svg" xmlns:cc="http://creativecommons.org/ns#" xmlns:dc="http://purl.org/dc/elements/1.1/" xmlns:rdf="http://www.w3.org/1999/02/22-rdf-syntax-ns#">
<metadata>
<rdf:RDF>
<cc:Work rdf:about="">
<dc:format>image/svg+xml</dc:format>
<dc:type rdf:resource="http://purl.org/dc/dcmitype/StillImage"/>
<dc:title/>
</cc:Work>
</rdf:RDF>
</metadata>
<g fill="#fff">
<g transform="matrix(.26458 0 0 .26458 25.53 9.6518)">
<path d="m249.18 66.348h65.39v24.19h-65.39z"/>
<path d="m333.14 77.931-37.835 27.871 0.02-55.784 18.908 13.957z"/>
</g>
<path d="m99.192 43.269c1.3508 0 2.4464-1.0956 2.4464-2.4464v-6.1132l-0.26045 0.0067c-0.0247 6.35e-4 -0.0391 0.0016-0.0434 0.0016-0.0703 0-0.14022-0.0055-0.21032-0.01499l-0.28835-0.03876v5.9298c0 1.0499-0.83729 1.8872-1.8872 1.8872h-14.024c-1.0499 0-1.8872-0.8373-1.8872-1.8872v-19.893c0-1.0499 0.8373-1.8872 1.8872-1.8872h14.024c1.0499 0 1.8872 0.8373 1.8872 1.8872v5.5949l0.28834-0.03927c0.0698-0.0095 0.13979-0.01447 0.21032-0.01447 6e-3 0 0.0201 9.26e-4 0.0429 0.0016l0.26097 0.0067v-5.7938c0-1.3508-1.0956-2.4458-2.4464-2.4458h-14.497c-1.3508 5e-6 -2.4458 1.0951-2.4458 2.4458v20.366c0 1.3508 1.0951 2.4464 2.4458 2.4464z" color="#000000" color-rendering="auto" dominant-baseline="auto" image-rendering="auto" shape-rendering="auto" solid-color="#000000" stroke-width=".26458" style="font-feature-settings:normal;font-variant-alternates:normal;font-variant-caps:normal;font-variant-ligatures:normal;font-variant-numeric:normal;font-variant-position:normal;isolation:auto;mix-blend-mode:normal;shape-padding:0;text-decoration-color:#000000;text-decoration-line:none;text-decoration-style:solid;text-indent:0;text-orientation:mixed;text-transform:none;white-space:normal"/>
</g>
</svg>
