<?xml version="1.0" encoding="UTF-8"?>
<svg width="210mm" height="297mm" version="1.1" viewBox="0 0 210 297" xmlns="http://www.w3.org/2000/svg" xmlns:cc="http://creativecommons.org/ns#" xmlns:dc="http://purl.org/dc/elements/1.1/" xmlns:rdf="http://www.w3.org/1999/02/22-rdf-syntax-ns#">
<metadata>
<rdf:RDF>
<cc:Work rdf:about="">
<dc:format>image/svg+xml</dc:format>
<dc:type rdf:resource="http://purl.org/dc/dcmitype/StillImage"/>
<dc:title/>
</cc:Work>
</rdf:RDF>
</metadata>
<path transform="scale(.26458)" d="m360.29 147.67c-0.94472-0.01517-1.8744 0.08469-2.7773 0.27539-2.9748-0.50742-6.2845 0.20768-9.166 2.2695l-145.14 103.86c-5.5124 3.9443-7.3023 11.239-4.0117 16.355 3.2906 5.1167 10.378 6.0595 15.891 2.1152l29.912-21.402v183.61c0 0.16423 0.01844 0.32297 0.02148 0.48633h-26.271c-10.783-1e-5 -19.465 5.0298-19.465 11.279 0 6.2495 8.6816 11.281 19.465 11.281h283.93c10.783 0 19.465-5.0318 19.465-11.281 0-6.2495-8.6816-11.279-19.465-11.279h-29.127c0.00305-0.16336 0.02149-0.3221 0.02149-0.48633v-179.39l24.316 17.934c5.455 4.0232 12.944 3.4688 16.793-1.2422 3.849-4.711 2.5566-11.742-2.8984-15.766l-143.63-105.93c-2.3866-1.7602-5.1632-2.6443-7.8535-2.6875zm-2.1875 22.535 93.035 68.615v196.42h-48.072v-113.58c0-5.7731-5.4562-10.422-12.234-10.422h-65.434c-6.7782 0-12.234 4.6488-12.234 10.422v113.58h-47.025v-199.23l91.965-65.805zm-23.09 153.63h45.68c4.7318 0 8.541 4.6468 8.541 10.42v100.98h-62.762v-100.98c0-5.7731 3.8092-10.42 8.541-10.42z" fill="#fff"/>
</svg>
