<svg width="100%" height="100%" version="1.1" viewBox="0 0 126 160" xmlns="http://www.w3.org/2000/svg" xmlns:cc="http://creativecommons.org/ns#" xmlns:dc="http://purl.org/dc/elements/1.1/" xmlns:rdf="http://www.w3.org/1999/02/22-rdf-syntax-ns#">
        <metadata>
          <rdf:RDF>
            <cc:Work rdf:about="">
              <dc:format>image/svg+xml</dc:format>
              <dc:type rdf:resource="http://purl.org/dc/dcmitype/StillImage"/>
              <dc:title/>
            </cc:Work>
          </rdf:RDF>
        </metadata>
        <path d="m7.1815 66.348h65.39v24.19h-65.39z" fill="#fff"/>
        <path d="m91.141 77.931-37.835 27.871 0.0096-27.892 0.0096-27.892 18.908 13.957z" fill="#fff"/>
        <path d="m42.229 30.451c-5.1053 0-9.2461 4.1408-9.2461 9.2461v23.105l0.98438-0.02539c0.09344-0.0024 0.14764-0.0059 0.16406-0.0059 0.26555 0 0.52997 0.02073 0.79492 0.05664l1.0898 0.14648v-22.412c0-3.9682 3.1646-7.1328 7.1328-7.1328h53.004c3.9682 0 7.1328 3.1646 7.1328 7.1328v75.186c0 3.9682-3.1646 7.1328-7.1328 7.1328h-53.004c-3.9682 0-7.1328-3.1646-7.1328-7.1328v-21.146l-1.0898 0.14844c-0.26392 0.03576-0.52833 0.05469-0.79492 0.05469-0.0225 0-0.0758-0.0035-0.16211-0.0059l-0.98633-0.02539v21.898c0 5.1053 4.1408 9.2441 9.2461 9.2441h54.791c5.1053-2e-5 9.2441-4.1388 9.2441-9.2441v-76.975c0-5.1053-4.1388-9.2461-9.2441-9.2461z" color="#000000" color-rendering="auto" dominant-baseline="auto" fill="#fff" image-rendering="auto" shape-rendering="auto" solid-color="#000000" style="font-feature-settings:normal;font-variant-alternates:normal;font-variant-caps:normal;font-variant-ligatures:normal;font-variant-numeric:normal;font-variant-position:normal;isolation:auto;mix-blend-mode:normal;shape-padding:0;text-decoration-color:#000000;text-decoration-line:none;text-decoration-style:solid;text-indent:0;text-orientation:mixed;text-transform:none;white-space:normal"/>
      </svg>