<?xml version="1.0" encoding="UTF-8"?>
<svg width="210mm" height="297mm" version="1.1" viewBox="0 0 210 297" xmlns="http://www.w3.org/2000/svg" xmlns:cc="http://creativecommons.org/ns#" xmlns:dc="http://purl.org/dc/elements/1.1/" xmlns:rdf="http://www.w3.org/1999/02/22-rdf-syntax-ns#">
<metadata>
<rdf:RDF>
<cc:Work rdf:about="">
<dc:format>image/svg+xml</dc:format>
<dc:type rdf:resource="http://purl.org/dc/dcmitype/StillImage"/>
<dc:title/>
</cc:Work>
</rdf:RDF>
</metadata>
<g fill="#fff">
<path transform="scale(.26458)" d="m345.28 237.63a161.12 161.12 0 0 0-161.12 161.12 161.12 161.12 0 0 0 161.12 161.12 161.12 161.12 0 0 0 161.12-161.12 161.12 161.12 0 0 0-161.12-161.12zm-0.31445 18.688a142.43 142.43 0 0 1 142.43 142.43 142.43 142.43 0 0 1-142.43 142.43 142.43 142.43 0 0 1-142.43-142.43 142.43 142.43 0 0 1 142.43-142.43z"/>
<path transform="scale(.26458)" d="m344.02 268.95c-5.2927 0-9.5527 4.4834-9.5527 10.055v7.8398c-28.283 5.0506-49.759 29.753-49.76 59.488-5.9e-4 33.386 27.063 60.453 60.449 60.453 0.33811-0.01512 0.67779-0.03113 1.0156-0.05078 0.45037-0.02268 0.90071-0.03781 1.3516-0.04688 24.06 5.7e-4 43.564 19.505 43.564 43.564 4.5e-4 24.06-19.504 43.566-43.564 43.566-24.061 4.5e-4 -43.567-19.505-43.566-43.566 0.01058-0.22563 0.02067-0.45056 0.03125-0.67578 0.46193-15.343-16.042-16.436-16.059 0.67578 1.0407 32.071 19.859 53.217 46.537 58.262v6.9492c0 5.5712 4.2601 10.057 9.5527 10.057s9.5547-4.4854 9.5547-10.057v-6.1133c30.381-3.1929 54.06-28.882 54.061-60.109 5.7e-4 -33.386-27.063-60.453-60.449-60.453-0.33807 0.01512-0.67583 0.02917-1.0137 0.04883-0.45036 0.02267-0.90266 0.03975-1.3535 0.04883-24.06-5.7e-4 -43.564-19.505-43.564-43.564-4.3e-4 -24.06 19.504-43.566 43.564-43.566 24.061-4.4e-4 43.567 19.505 43.566 43.566-0.00756 0.22541-0.01808 0.45055-0.0332 0.67578-0.46193 15.343 16.042 16.436 16.059-0.67578-1.0949-33.769-21.898-55.426-50.836-58.926v-7.3906c0-5.5712-4.262-10.055-9.5547-10.055z"/>
</g>
</svg>
