<?xml version="1.0" encoding="UTF-8"?>
<svg width="210mm" height="297mm" version="1.1" viewBox="0 0 210 297" xmlns="http://www.w3.org/2000/svg" xmlns:cc="http://creativecommons.org/ns#" xmlns:dc="http://purl.org/dc/elements/1.1/" xmlns:rdf="http://www.w3.org/1999/02/22-rdf-syntax-ns#">
<metadata>
<rdf:RDF>
<cc:Work rdf:about="">
<dc:format>image/svg+xml</dc:format>
<dc:type rdf:resource="http://purl.org/dc/dcmitype/StillImage"/>
<dc:title/>
</cc:Work>
</rdf:RDF>
</metadata>
<g fill="#fff">
<path transform="rotate(45)" d="m13.085-1.2372h5.5751c0.26175 0 0.47247 0.21072 0.47247 0.47247 0 0.26175-0.21072 0.47247-0.47247 0.47247h-5.5751c-0.26175 0-0.47247-0.21072-0.47247-0.47247 0-0.26175 0.21072-0.47247 0.47247-0.47247z"/>
<path transform="rotate(-45)" d="m0.76472 18.188h5.5751c0.26175 0 0.47247 0.21072 0.47247 0.47247 0 0.26175-0.21072 0.47247-0.47247 0.47247h-5.5751c-0.26175 0-0.47247-0.21072-0.47247-0.47247 0-0.26175 0.21072-0.47247 0.47247-0.47247z"/>
</g>
</svg>
